<svg xmlns="http://www.w3.org/2000/svg" width="38" height="38" viewBox="0 0 38 38">
  <metadata><?xpacket begin="﻿" id="W5M0MpCehiHzreSzNTczkc9d"?>
<x:xmpmeta xmlns:x="adobe:ns:meta/" x:xmptk="Adobe XMP Core 5.6-c142 79.160924, 2017/07/13-01:06:39        ">
   <rdf:RDF xmlns:rdf="http://www.w3.org/1999/02/22-rdf-syntax-ns#">
      <rdf:Description rdf:about=""/>
   </rdf:RDF>
</x:xmpmeta>
                                                                                                    
                                                                                                    
                                                                                                    
                                                                                                    
                                                                                                    
                                                                                                    
                                                                                                    
                                                                                                    
                                                                                                    
                                                                                                    
                                                                                                    
                                                                                                    
                                                                                                    
                                                                                                    
                                                                                                    
                                                                                                    
                                                                                                    
                                                                                                    
                                                                                                    
                                                                                                    
                           
<?xpacket end="w"?></metadata>
<defs>
    <style>
      .cls-1 {
        fill: #4c7cf3;
        fill-rule: evenodd;
      }
    </style>
  </defs>
  <path class="cls-1" d="M8.767,28.576a8.979,8.979,0,0,1,3.352-11.14c0-6.279,2.168-12.76,6.312-17.215a0.648,0.648,0,0,1,.987,0c4.147,4.457,6.32,10.94,6.42,17.118,3.554,2.634,5.134,7.091,3.359,11.142a9.9,9.9,0,0,0-4.048-4.559,15.94,15.94,0,0,1-.69,2.329,0.659,0.659,0,0,1-.691.506l-9.87,0a0.631,0.631,0,0,1-.494-0.507,9.325,9.325,0,0,1-.593-2.228A9.882,9.882,0,0,0,8.767,28.576ZM18.93,21.658a2.733,2.733,0,0,0,2.763-2.835,2.764,2.764,0,1,0-5.527,0A2.736,2.736,0,0,0,18.93,21.658ZM13.7,34.249V30a1.382,1.382,0,1,1,2.764,0v4.254A1.382,1.382,0,1,1,13.7,34.249Zm7.7,0V30a1.382,1.382,0,1,1,2.764,0v4.254A1.382,1.382,0,1,1,21.4,34.251Zm-3.75,2.324,0-6.578a1.382,1.382,0,1,1,2.764,0l0,6.578A1.382,1.382,0,1,1,17.652,36.574Zm1.279-22.731a1.412,1.412,0,1,0-1.415-1.413A1.379,1.379,0,0,0,18.931,13.843Z"/>
</svg>
